<svg xmlns="http://www.w3.org/2000/svg" xmlns:xlink="http://www.w3.org/1999/xlink" id="Layer_1" viewBox="0 0 512 512"><linearGradient id="SVGID_1_" gradientTransform="matrix(1 0 0 -1 0 514.14)" gradientUnits="userSpaceOnUse" x1="-2.939" x2="493.511" y1="515.281" y2="18.841"><stop offset="0" stop-color="#62e8a2"></stop><stop offset="1" stop-color="#13ce63"></stop></linearGradient><g id="Layer_2_00000167355541206115053860000000542105410101494934_"><g id="Layer_2_copy_11"><g id="_2"><path d="m475 175.8-37-11.8c-4.3-1.4-6.9-5.8-5.9-10.3l8.3-37.9c9.1-41.9-32.5-76.8-72.1-60.5l-35.9 14.7c-4.2 1.7-9 0-11.1-4l-18.1-34.4c-19.9-37.9-74.2-37.9-94.2 0l-18.1 34.4c-2.1 4-6.9 5.7-11.1 4l-35.9-14.7c-39.7-16.3-81.4 18.6-72.2 60.5l8.3 37.9c1 4.4-1.6 8.9-5.9 10.3l-37 11.8c-40.8 13-50.2 66.5-16.4 92.8l30.7 23.8c3.6 2.8 4.5 7.8 2.1 11.7l-20.7 32.8c-23 36.1 4.2 83.1 47 81.4l38.8-1.5c4.5-.2 8.5 3.1 9.1 7.6l5.2 38.5c5.8 42.5 56.8 61 88.5 32.2l28.7-26.1c3.4-3.1 8.5-3.1 11.8 0l28.7 26.2c31.7 28.8 82.7 10.3 88.5-32.2l5.2-38.5c.6-4.5 4.5-7.8 9.1-7.6l38.8 1.5c42.8 1.7 70-45.3 47.1-81.6l-20.7-32.8c-2.4-3.8-1.5-8.9 2.1-11.7l30.7-23.8c33.8-26.2 24.4-79.7-16.4-92.7zm-110.1 35.4-128.6 128.7c-10.8 10.8-28.3 10.8-39.1 0l-64.1-64.1c-10.8-10.8-10.8-28.3 0-39.1s28.3-10.8 39.1 0l44.5 44.5 109.1-109c10.8-10.8 28.3-10.8 39.1 0s10.8 28.3 0 39z" fill="url(#SVGID_1_)"></path></g></g></g></svg>