<svg xmlns="http://www.w3.org/2000/svg" width="179" height="32" viewBox="0 0 179 32" fill="none"><path d="M89.0805 32C128.293 32 133.448 0 174.421 0C215.395 0 -33.1015 0 3.73958 0C40.5807 0 49.8682 32 89.0805 32Z" fill="white"></path><path d="M78.309 8.50767C77.6093 7.80799 76.4432 7.80799 75.7435 8.50767C75.0438 9.20734 75.0438 10.3735 75.7435 11.0731L87.8712 23.2008C88.5709 23.9005 89.737 23.9005 90.4367 23.2008L102.564 11.0731C103.264 10.3735 103.264 9.20734 102.564 8.50767C101.865 7.80799 100.699 7.80799 99.9989 8.50767L89.1539 19.3526L78.309 8.50767Z" fill="black"></path></svg>